<?xml version="1.0" encoding="UTF-8"?>
<svg id="Capa_1" xmlns="http://www.w3.org/2000/svg" version="1.1" viewBox="0 0 1080 521.62">
  <!-- Generator: Adobe Illustrator 29.8.1, SVG Export Plug-In . SVG Version: 2.1.1 Build 2)  -->
  <defs>
    <style>
      .st0 {
        fill: #fff;
      }
    </style>
  </defs>
  <path class="st0" d="M191.48,354.25h34l4.86,38.85h-77.7v-135.98h38.85v97.13h-.01Z"/>
  <path class="st0" d="M274.91,363.96v29.14h-38.85v-135.98h67.98c32.38,0,48.56,17.81,48.56,53.42s-16.19,53.42-48.56,53.42h-29.14ZM274.91,295.97v29.14h29.14c6.48,0,9.71-4.86,9.71-14.57s-3.23-14.57-9.71-14.57h-29.14Z"/>
  <path class="st0" d="M360.29,257.12h38.85v48.56h48.56v-48.56h38.85v135.98h-38.85v-48.56h-48.56v48.56h-38.85v-135.98Z"/>
  <path class="st0" d="M835.72,257.12v135.98h-38.85v-64.78l-38.85,64.78-38.85-64.49v64.49h-38.85v-135.98h48.56l29.14,67.98,29.14-67.98h48.56,0Z"/>
  <path class="st0" d="M927.78,257.12l4.86,38.85h-48.56v9.71h43.71l4.86,38.85h-48.56v9.71h43.71l4.86,38.85h-87.41v-135.98h82.56-.03Z"/>
  <path class="st0" d="M983.33,334.83v58.27h-38.85v-135.98l87.41,63.13v-63.13h38.85v135.98l-87.41-58.27Z"/>
  <polygon class="st0" points="56.8 393.1 15 393.1 80.97 257.12 150.98 393.1 108.23 393.1 82.99 328.43 56.8 393.1"/>
  <path class="st0" d="M674.83,398.58v-146.94h20.57c-.35-.99-.68-2-1.05-3-2.78-7.39-5.94-14.61-9.58-21.62-4.35-8.38-9.27-16.42-14.81-24.06-.31-.43-.55-.89-.81-1.3.26-.73.8-1.13,1.25-1.58,11.86-11.87,23.73-23.74,35.6-35.6,13.71-13.71,27.43-27.43,41.15-41.13,3.61-3.61,7.2-7.22,10.82-10.82.38-.38.69-.97,1.37-1.01.35.68.2,1.35.2,1.98v60.86c0,.59-.02,1.19.01,1.78.02.4.12.79.19,1.15,1.5.18,54.17.31,58.27.14.28-.01.57-.08.83-.11.1-.24.24-.4.24-.55.02-55.4.03-110.81.05-166.21,0-.34-.08-.69-.12-1.04-.7-.42-1.42-.27-2.13-.27h-161.59c-1.01,0-2.01-.02-3.03,0-.4,0-.79.11-1.19.18-.29.77-.18,1.48-.18,2.18v54.81c0,.42-.02.84.01,1.24.03.34.14.66.2.96.85.31,1.63.18,2.39.18h62.64c.28,0,.61,0,.69.55-29.92,29.92-59.89,59.89-89.98,89.97-.62-.4-1.09-.67-1.52-.97-1.66-1.14-3.3-2.32-4.96-3.45-10.4-7.02-21.37-12.99-32.95-17.84-6.9-2.88-13.9-5.46-21.09-7.54-5.18-1.49-10.41-2.82-15.7-3.86-4.07-.8-8.15-1.58-12.27-2.16-4.05-.57-8.13-.95-12.2-1.27-3.96-.31-7.93-.5-11.91-.6-6.34-.16-12.7.06-19.02.63-3.96.36-7.91.71-11.85,1.28-4.69.67-9.36,1.54-14,2.54-10.15,2.2-20.08,5.16-29.77,8.93-9.47,3.69-18.59,8.08-27.36,13.19-10.74,6.25-20.77,13.49-30.13,21.68-5.99,5.25-11.66,10.81-16.96,16.73-6.22,6.94-11.94,14.28-17.11,22.05-4.27,6.42-8.17,13.07-11.66,19.96-4.05,8-7.58,16.22-10.46,24.7-.17.49-.32.98-.49,1.47,14.66,4.85,24.55,15.24,29.29,30.92v-34.11h36.93c23-41.82,67.36-70.46,119.29-70.46,75.84,0,136.1,61.03,136.15,136.01.01,26.64-7.5,51.26-20.44,72.06l4.79,9.32h-11.14c-24.93,33.5-64.86,54.91-109.44,54.87-44.79-.03-84.43-21.58-109.19-54.87h-46.93v-63.26c-5.14,16.99-16.27,27.82-33.02,32.06,1.14,4.3,2.42,8.56,3.83,12.79,3.26,9.75,7.3,19.16,12.07,28.27,5.75,10.94,12.49,21.26,20.22,30.92,8.73,10.93,18.51,20.83,29.33,29.69,6.7,5.49,13.76,10.48,21.14,15.05,7.73,4.77,15.79,8.92,24.09,12.61,7.97,3.54,16.21,6.4,24.58,8.83,11.48,3.34,23.2,5.39,35.07,6.6,6.14.62,12.31.89,18.47.88,7.29-.01,14.57-.34,21.84-1.18,4.71-.54,9.42-1.18,14.08-2.01,7.94-1.42,15.76-3.35,23.45-5.81,8.93-2.87,17.66-6.22,26.11-10.3,7.97-3.84,15.65-8.19,23.03-13.06,6.43-4.25,12.58-8.9,18.47-13.88,8.16-6.92,15.7-14.45,22.65-22.59,5.66-6.64,10.85-13.64,15.57-20.98,4.71-7.35,8.93-14.97,12.61-22.88.26-.57.51-1.14.77-1.72h-14.32.03Z"/>
  <polygon class="st0" points="528.34 393.1 486.55 393.1 552.51 257.12 622.52 393.1 579.77 393.1 554.53 328.43 528.34 393.1"/>
</svg>