<?xml version="1.0" encoding="UTF-8"?>
<svg id="Capa_1" xmlns="http://www.w3.org/2000/svg" version="1.1" viewBox="0 0 895.95 1080">
  <!-- Generator: Adobe Illustrator 29.8.1, SVG Export Plug-In . SVG Version: 2.1.1 Build 2)  -->
  <defs>
    <style>
      .st0 {
        fill: #f1b434;
      }
    </style>
  </defs>
  <path class="st0" d="M744.94,289.56c8.18,2.26,8.78,14.66,7.65,21.74-7.76,48.89-34.58,113.36-47.6,163.7-26.54,102.68-42.48,209.6-45.85,315.72-1.72,54.1,5.72,119.53.1,171.53-1.36,12.6-7.89,13.94-19.84,15.35l-399.3-.07c-6.98-.16-16.14-5.83-17.5-13.03,11.16-224.97-20.73-441.27-93.41-653.2-7-40.24,61.22-12.56,83.93-24.09.78,12.6,1.09,26.21,2.4,38.71.63,5.99,5.37,19.5,4.83,23.15-.41,2.74-16.31,5.16-14.18,21.27,39.57,100.31,66.64,206.86,75.04,314.85,5.19,66.68-14.54,158.74,78.98,167.54,33.37,3.14,152.98,4.6,181.22-3.65,64.11-18.72,53.59-73.52,56.68-124.1,7.5-122.55,32.45-242.92,77.74-356.81l-3.77-12.8c-2.46-2.87-5.84-4.06-9.46-4.63-17.37-2.72-105.12,3.18-111-.53-6.74-19.08-27.48-41.16-33.21-59.53-2.21-7.11,5.44-1.13,5.83-1.13h220.7Z"/>
  <path class="st0" d="M289.11,471.87c81.28,78.61,214.04,95.64,309.07,31.34-13.61,64.75-25.36,129.9-30.47,196.07-1.96,25.32.72,57.78-2.58,81.95-3.25,23.87-22.77,37.07-45.49,39.03-38.69,3.33-124.25,4.18-162.09-.08-20.23-2.28-38.09-18.52-40.87-38.95-3.5-25.69-.62-59.89-2.58-86.64-4.24-57.91-14.14-116.11-26.94-172.62-4.78-21.08-14.76-46.75-17.65-66.89-.2-1.41-.65-3.85,1.17-3.5,7.27,5.12,12.64,14.69,18.44,20.3Z"/>
  <path class="st0" d="M558.26,421.04c3.69,20.52,37.04,42.55,15.32,61.07-34.92,29.78-120.66,32.73-163.21,22.28-181.03-44.47-225.33-294.83-67.86-394.22,37.44-23.63,38.24,11.8,55.56,37.38-29.03,19.14-52.88,36.53-70.26,67.65-66.03,118.23,37.73,257.73,169.53,230.57,22.62-4.66,39.84-16.75,60.93-24.74Z"/>
  <path class="st0" d="M447.94,416.34l30.48-115.67,5.94-3.99,55.22,97.25c.04,2.99-49,22.41-55.25,22.41h-36.39Z"/>
  <path class="st0" d="M417.39,176.87l51.43,90.4c-3.81,6.21-9.84,7.08-16.72,5.28l-102.76-27.62c12.51-29.82,37.66-56.74,68.05-68.06Z"/>
  <path class="st0" d="M417.39,406.95c-20.7-6.79-37.49-22.6-51.58-38.74l72.72-43.43-21.14,82.17Z"/>
  <path class="st0" d="M419.75,296.63l-65.73,41.09c-2.79,2.18-3.91,1.27-5.81-1.26-5.66-7.58-12.55-55.17-5.97-59.95l77.5,20.12Z"/>
  <path class="st0" d="M635.74,381.13l-25.78,75.11c1.58-12.43-40.85-69.82-37.57-75.11,19.86,3.52,43.65,4.12,63.35,0Z"/>
</svg>