<?xml version="1.0" encoding="UTF-8"?>
<svg id="Capa_1" xmlns="http://www.w3.org/2000/svg" version="1.1" viewBox="0 0 459.74 846.24">
  <!-- Generator: Adobe Illustrator 29.8.1, SVG Export Plug-In . SVG Version: 2.1.1 Build 2)  -->
  <defs>
    <style>
      .st0 {
        fill: #f1b434;
      }
    </style>
  </defs>
  <path class="st0" d="M163.26,19.47v51.7c0,.54,6.21,5.72,7.31,7.45,2.69,4.21,1.49,20.18.13,25.52-1.17,4.6-1.38,6.51-6.19,7.4.43,17.88-.24,35.8.03,53.68.05,3.17,1.37,6.11,1.45,9.29.22,8.53-1.6,44.07,1.2,48.48,2.26,3.55,14.08,4.85,19.32,7.54,11.38,5.84,13.12,17.08,27.76,7.8-.06-3.51-3.42-4.65-4.72-8.01-1.69-4.37-1.24-10.4-2.64-14.82-1.81-5.7-8.47-15.31-9.82-19.73-1.57-5.12,2.41-10.8-1.6-16.88-1.52-2.29-7.54-1.15-9.39-4.33,9.57-11.34,4.62-30.8,22.71-36.34,6.47-1.99,7.27-2.72,12.55-4.9,14.34-5.92,28.52,3.29,39.2,12.42,11.27,9.64,27.85,35.95,22.95,51.07-.84,2.59-3.66,3.94-4.47,6.28s-.22,5.13-1.33,8.07c-1.81,4.75-9.95,12.26-8.3,16.98.8,2.28,4.2,1.22,3.94,3.5l-8.04-1.34c1.99,4.53-2.73,5.77-2.75,6.15-.21,3.47,5.96,12.85,8.73,15.4,16.11,14.87,42.93,1.66,54.12,30.48,5.8,14.93-.17,24.13,4.33,38.64,5,16.1,16.86,31.82,23.5,47.67,10.04,23.99,15.62,53.2,25.52,76.53,1.73,4.08,7.08,7.85,7.21,12.68.08,2.83-1.09,14.14-1.79,16.89-.85,3.31-7.92,11.7-10.76,13.53-.64.41-13.7,2.12-15.1,2.16-.47.01-8.75-1.92-9.09-2.24l-1.41-5.39c3.3-4.1,10.96-8.77,11.53-14.25.32-2.39-2.22-1.63-3.13-3.57-4.23-9.04-1.4-19.96-2.99-28.05s-27.19-31.29-32.93-47.44c-4.98-14-3.67-32.91-20.08-39.66-.21,7.89-2.25,15.34-1.24,23.38.85,6.77,5.31,14.94,6.26,21.94,1.03,7.65-.64,14.69,1.76,22.41,1.36,4.38,6.21,8.73,6.39,11.02s-2.6,4.32-2.23,6.3c.25,1.35,4.96,5.33,5.89,8.88.92,3.51.06,6.97.89,9.85.2.71,4.77,10.4,5.85,12.95,11.34,26.64,22.2,41.06,16.11,72.65-1.19,6.18-5.17,14.19-5.85,19.76-.91,7.47,8.42,23.84,10.14,33.55,1.32,7.47.29,19.6,2.01,26.19.65,2.49,4.43,6.04,5.78,8.99,9.94,21.83,12.3,44.49,17.16,67.44,2.98,14.1,6.61,16.36,12.36,27.93,4.71,9.47,22.12,49.63,28.34,53.57,7.48,4.74,8.99,3.18,17.06,10.47,1.67,1.51,6.38,1.25,6.26,6.45-9.51,5.83-26.4,3.42-35.86-1.7-6.64-3.6-10.86-12.9-17.18-17.73-11.35-8.67-38.71-13.04-36.99-31.57.41-4.39,3.53-7.87,4-12.22.83-7.59-13.6-39.77-18.45-47.12-5.34-8.11-12.33-12.2-16.61-22.33-6.4-15.14-4.58-30.99-8.43-43.94-3.46-11.65-19.25-42.59-25.54-55.03-9.15-18.1-18.75-28.16-23.2-49.31-1.76-8.35,1.24-16.77-11.07-19.13-6.96,30.1-28.55,53.97-44.88,79.33-9.18,14.25-15.56,30.6-27.61,43.56-.24,73.69,2.49,147.44,2.07,220.96l-16.88,1.26-4.04-167.86c-11.73,6.44-19.06,20.01-25.73,31.32-3.08,5.22-12.92,21.68-13.94,26.38-1.29,5.99,3.94,10.1,4.72,14.19,2.18,11.56-9.11,18.39-12.44,29.08-4.75,15.28,3.22,25.28-10.31,38.03-8.77,8.26-13.53,8.46-23.81,2.33-12.38-7.38,2.17-17.29,3.56-25.27,3.02-17.31,1.9-38.38,7.5-55.61,2.35-7.24,8.19-14.06,11.05-21.17,9.16-22.73,11.89-48.95,22.52-72.82,4.79-10.76,14.87-23.32,18.38-32.65,1.91-5.08,1.92-11.16,3.66-16.48,1.64-5.01,7.38-12.42,8.07-16.1,2.12-11.37-1.03-29.07.08-41.55.73-8.21,4.67-16.25,5.41-24.14,1.24-13.31-1.3-27.47-1.46-40.29-.78-63.66-1.13-127.05-1.28-190.74-.81-4.31-14.11-8.48-18.39-11.15-8.83-5.49-18.57-16.32-25.27-24.41-8.08-9.76-15.58-17.78-15.54-31.58.03-7.98,3.38-8.47,5.11-13.8,2.57-7.89,2.77-17.13,6.06-26.16,6.06-16.64,19.63-36.09,24.54-52,2.45-7.94,3.16-17.55,5.97-26.26,1.96-6.1,16.17-39.33,16.17-41.57v-28.87h16.11ZM148.49,207.47v-83.26c-5.51,1.08-5.54,6.86-6.35,11.78-3.95,24-7.01,48.59-8.41,72.81l14.76-1.34ZM173.74,454.28c1.12-1.81-.83-4.56-.39-6.62.43-2.06,3.37-4.22,4.12-6.55.7-2.15-.5-4.24.24-6.31,3.52-9.74,9.49-19.35,14.71-27.9-7.73-25.18-13.04-51.55-22.8-76.23-.56-1.42-.39-4-2.32-3.69l1.34,132.93c2.3.35,1-2.43,2.09-3.98.75-1.05,2.69-1.15,3-1.65Z"/>
</svg>