<?xml version="1.0" encoding="UTF-8"?>
<svg id="Capa_1" xmlns="http://www.w3.org/2000/svg" version="1.1" viewBox="0 0 759.46 701.35">
  <!-- Generator: Adobe Illustrator 29.8.1, SVG Export Plug-In . SVG Version: 2.1.1 Build 2)  -->
  <defs>
    <style>
      .st0 {
        fill: #f1b434;
      }
    </style>
  </defs>
  <path class="st0" d="M185.35,648.93l-.14-370.14c17.32-70.34,13.17-137.43-9.94-205.57l106.08-42.68c9.99,23.96,17.01,42.71,39.74,57.84,58.57,39,142.98,11.51,160-58.18l107.05,45.54c-19.4,49.09-21.96,99.84-19.02,152.23.84,14.89,7.35,31.63,7.92,46.9,4.61,124.32-3.75,249.7-.15,374.07H185.35ZM522.07,206.5h-84.18l-5.85,9.73,5.85,5.93h84.18v-15.66Z"/>
  <path class="st0" d="M107.17,304.31L21.61,204.5l136.28-119.38c17.95,51.61,25.39,106.54,13.99,160.76-5.34,25.39-42.84,47-64.7,58.43Z"/>
  <path class="st0" d="M597.61,264.13c-4.53-5.79-7.26-24.38-8.52-32.65-5.82-38.33-1.85-106.03,14.33-141.47,1.85-4.05-.77-6.12,6.69-4.86l131.37,119.38-88.8,99.57c-3.36.55-52.27-36.38-55.08-39.97Z"/>
  <path class="st0" d="M459.42,34.26c-14.13,62.34-116.39,68.56-146.64,19.36-2.15-3.5-12.76-24.96-2.09-21.46,54.15,17.76,93.76,15.1,148.73,2.11Z"/>
</svg>