<?xml version="1.0" encoding="UTF-8"?>
<svg id="Capa_1" xmlns="http://www.w3.org/2000/svg" version="1.1" viewBox="0 0 506.41 846.24">
  <!-- Generator: Adobe Illustrator 29.8.1, SVG Export Plug-In . SVG Version: 2.1.1 Build 2)  -->
  <defs>
    <style>
      .st0 {
        fill: #f1b434;
      }
    </style>
  </defs>
  <path class="st0" d="M307.81,799.81l-1-15c-1.65-1.63-24.63,5.36-27.96,7.55-2.36,1.55-4.19,4.93-6.67,6.32-3.93,2.2-25.28,1.6-30.91,1.17-8.17-.62-20.44-3.33-17.01-14.1,1.97-6.17,22.52-10.88,28.87-14.12,46.77-23.9,31.48-91.53,28.69-133.33-5.83-87.4-.79-174.49,12.03-261.04l-8.51-66.5-.98-.69c-32.66,5.26-65.84,4.74-98.88,4.92-4.95,8.47-17.95,24.2-18.44,33.65-1.14,21.55,25.08,44.92,33.27,66.2,24.13,62.74-23.19,99.28-17.48,156.48,1.4,14.04,13.56,27.92,18.47,41.53,8.55,23.67,3.51,53.24,4.48,78.52.2,5.37.37,15.12,1.11,19.89,2.12,13.67,24.34,10.78,25.89,27.19.38,4-1.76,6.77-1.87,9.97-.12,3.59,2.56,10.21,4.48,13.34,1.78,2.89,10.96,9.81,4.95,11.06l-16.91-15.95c-3.11,2.78-5.94,7.33-6.52,11.54-1.58,11.48,2.4,19.75-2.04,31.96-1.43,3.94-8.62,15.65-12.77,16.29-2.7.42-6.48-2.77-7.69-4.93-2.59-4.62-1.68-19.15-2.85-26.15s-4.13-15.08-5.44-22.56c-4.49-25.69-6.29-51.48-15.31-76.2-1.38.11-1.58,1.46-2.04,2.45-5.81,12.66-17,37.8-17.03,51.05-.03,9.7,6.23,23.65,2.48,32.4-1.15,2.68-3.31,4.15-4.35,7.65-1.63,5.49-.07,19.32-5.29,21.71-2.92,1.34-25.85,1.33-28.19-.33-4.97-3.53,2.43-16.08,3.32-21.53,1.33-8.12.94-16.88,2.57-25.43,1.98-10.39,6.37-19.25,9.04-28.96,5.69-20.66-2.01-49.35.51-72.49,3.15-28.9,1.58-43.62-.06-71.97-.4-6.86,1.15-16.78,0-23-1.02-5.48-13.31-27.66-16.42-35.58-8.6-21.86-8.9-34.68-13.78-56.22-4.14-18.29-10.89-30.74-11.8-51.2-.44-9.9,2.16-22.05.96-30.96-.78-5.87-5.61-15.88-7.42-22.58-1.58-5.81-2.91-11.99-3.5-18-7.84,2.25-15.28,6.32-23.21,8.28-10.22,2.53-14.26,3.3-15.67-8.89-2.11-18.32,14.46-35.39,22.4-50.37,6.68-12.6,11.92-36.33,23.55-44.45,8.64-6.04,19.49-4.5,28.99-8.18,1.25-4.36-3.41-20.13-7.05-21.89-6.8-3.29-16.2,4.72-23.27,1.26-5.4-2.64-2.73-5.52-3.89-9.11-.54-1.68-3.32-1.75-3.75-3.3-.12-.43-.17-8.17-.11-8.77.18-1.79,2.12-3.64,1.88-4.95-.5-2.73-5.86-2.59-6.46-5.58-.83-4.16,7.44-9.8,8.39-14.81.8-4.25-1.42-9.05-.55-14.51.97-6.13,5.23-11.4,7.28-16.71,1.19-3.07.68-6.44,2.6-10.4s5.15-6.91,9.43-7.57c11.18-1.71,27.97-2.99,38.66.22,18.42,5.54,21.52,18.37,27.8,34.71.4.3,1.24-.64,1.48-1.01.56-.89,7.03-18.44,7.3-19.72,1.05-5.13-2.26-16.71-2.78-22.78-1.53-17.87-.46-39.16-6.99-56.01-1.99-5.15-7.83-11.71-7.01-16.9,1.25-7.86,9.22-4.93,9.94-5.62l1.25-11.25c.86-2.94,18.18-13.66,21.32-13.6,3.87.07,14.88,15.16,17.89,18.98,5.55,7.04,5.18,8.33,12.52,14.48,13.38,11.23,27.42,21.86,40.08,33.92,21.05,20.06,36.37,44.79,62.49,59.51.32-2.63,1.72-5.88,1.58-8.5-.17-3.19-3.52-4.85-2.91-7.75.52-2.48,4.81-5.41,5.9-8.17,2.58-6.52-.84-12.21,5.27-19.23,15.2-17.46,33.7-28.22,56.86-18.05,28.07,12.32,28.32,41.26,14.96,65.38-8.57,15.47-17.84,18.6-10.36,39.02,7.43,20.29,19.2,23.74,17.17,49.79-2.91,37.43-23.34,79.76-28.71,118.29-4.59,32.94,18.37,48.53,17.77,83.77-.69,40.24-5.4,65.36,5.04,105.88,11.89,46.17,23.03,76.48,24.96,126.04.6,15.47-2.24,37.76.02,51.98.96,6.08,10.3,9.52,11.55,15.52.96,4.58-2.63,9.06-2.16,14.1.62,6.63,7.57,15.28,8.44,23.55,1.3,12.4-4.54,11.78-7.68,20.1-1.92,5.09-.28,9.16-2.14,13.86-3.78,1.89-10.68-1.07-13.76.15-5.78,2.31-8.12,12.03-15.87,13.22-6.5,1-25.06.73-31.92.05-2.2-.22-7.02-.97-8.03-2.97-4.15-8.18,9.86-14.46,13.35-19.68,1.81-2.71,10.82-24.85,11.16-27.84.31-2.76.46-10.46-.03-12.98-.39-2.07-7.31-8.71-9.17-11.83-3.89-6.53-3.81-12.97-6.6-18.4-1.55-3.02-4.82-4.72-6.64-7.36-8.85-12.92-11.11-64.05-15.85-82.15-.45-1.73-.63-3.59-2.22-4.76-5.27,13.84-10.12,28.4-13.04,42.94-2.81,13.99-7.31,41.86-6.33,55.41,1.41,19.38,6.3,29.73,2.8,51.06-1.01,6.16-4.92,3.39-6.87,6.13-1.78,2.49-1.96,11.04-3.06,14.44h-20ZM290.68,254.69c2.08-13.2,9.35-28.78,10.88-41.64.82-6.93-5.67-10.67-9.73-15.76-25.57-32.01-50.57-64.68-70.2-100.8-5.62-10.34-11.99-27.99-18.4-36.61-1.07-1.44-3.11-3.89-4.96-4.08-1.06-.11-7.77,1.91-8.48,2.5-1.36,1.12-1.05,2.38-.94,3.88.71,9.64,7.45,25.94,9.65,36.43,8.72,41.46-6.09,69.41-3.75,108.75,1.2,20.2,9.25,39.83,7.04,60.46,30.29,1.25,58.74-11.62,88.88-13.13Z"/>
</svg>