<?xml version="1.0" encoding="UTF-8"?>
<svg id="Capa_1" xmlns="http://www.w3.org/2000/svg" version="1.1" viewBox="0 0 506.41 846.24">
  <!-- Generator: Adobe Illustrator 29.8.1, SVG Export Plug-In . SVG Version: 2.1.1 Build 2)  -->
  <defs>
    <style>
      .st0 {
        fill: #f1b434;
      }
    </style>
  </defs>
  <path class="st0" d="M352.68,414.22c-.87-1.27-4.72-1.13-5.59-4.34-3.64-13.45-1.76-31.26-11.95-45.09l-29.19-.61c.3,12.13,15.32,16.8,19.51,27.01,10.71,26.1-11.5,46.23-18.49,69.04-20.37,66.44,3.29,125.08,10.14,190.87-74.82,2.26-149.47-3.09-223.57-11.17,10.46-24.16,28.9-38.49,22.22-68.3-.19-.84-2.99-5.21-5.29-13.72-4.37-16.18-15.33-31.66-13.16-49.91,1.17-9.84,11.33-22.84,14.91-33.82,10.89-33.34,5.73-50.78,36.04-72.03,31.22-21.88,68.62-34.43,92.79-67.72,6.49-8.93,1.78-12.81,5.54-19.94,5.61-10.61,23.3-14.65,14.59-28.57l29.81-.03-18.57-29.8c26.86,16.72,63.34,15.3,87.52,37.28,16.07,14.61,24.83,40.61,39.23,57.66,22.12,26.19,56.8,38.14,70.28,71.34,9.48,23.34,17.87,51.99-1.61,72-16.42,16.87-62.03-10.14-74.1-26.11-12.49-16.52-30.09-37.98-41.07-54.05Z"/>
  <path class="st0" d="M254.89,164.03c-8.88,12.49-6.25,42.92-5.31,56.89.11,1.66-5.87,1.05-6.76,4.33-3.48,12.91-6.96,24.64,7.19,28.95-8,23.07-93.38-3.67-96.31-26.74-.65-5.08,6.81-8.85,6.88-14.2s-9.29-12.83-7.54-20.48c-18.24-4.89-20.86,21.94-27.91,26.01-9.54,5.5-4.8-23.05-12.94-22.3-14.9,20.24,25.76,46.62,26.4,53.94,1.54,17.55-12.81,35.57-18.88,52.59-2.26,6.32-1.05,18.37-2.23,20.24-1.26,2-33.95,29.64-36.13,30.6-12.9,5.67-30.59,1.76-40.02,15.96l-7.43-3.85c4.4-14.91,5.89-36.51,3.48-51.88-2.98-19.07-24.61-37.5-25.5-63.92-.54-15.92,10.46-31.73,11.09-44.4.84-16.82-11.78-40.88-11.71-59.62.06-14.47,12.58-67.43,17.01-83.88,5.41-20.06,17.36-47.69,43.93-40.43,6.69,1.83,45.41,34.46,49.31,44.21l25.86-37.48c8.68-8.64,32.56-14.92,44.06-13.88,10.62.96,18.81,10.15,25.01,11.67,24.82,6.1,47.32-3.61,60.37,25.93,13.05,29.53,3.61,45.7-3.53,72.39-2.24,8.36.28,16.9-3.65,26.14-3.78,8.88-12.11,9.5-14.74,13.2Z"/>
  <path class="st0" d="M216.67,799.99c48.42,7.81,48.86-28.93,68.67-55.8,4.97-6.75,41.72-37.94,46.66-33.43l22.4,119.24-136.33.34-7.13-7.78c-3.99,5.48-8.18,6.93-14.72,7.66-42.19,4.7-93.07-3.94-136.25-.2l12.95-134.29c4.52-5.84,4.32-1.94,8.14-.55,27.63,10.05,84.32,28.12,105.31,43.85,21.78,16.32,28.63,33.91,30.32,60.97Z"/>
</svg>