<?xml version="1.0" encoding="UTF-8"?>
<svg id="Capa_1" xmlns="http://www.w3.org/2000/svg" version="1.1" viewBox="0 0 531.08 1080">
  <!-- Generator: Adobe Illustrator 29.8.1, SVG Export Plug-In . SVG Version: 2.1.1 Build 2)  -->
  <defs>
    <style>
      .st0 {
        fill: #f1b434;
      }
    </style>
  </defs>
  <path class="st0" d="M240.3,741.71L43.2,354.52c-5.69-17.77,46.92-12.94,57.04-11.71,20.74,2.53,139.8,290.74,166.7,326.87l164.26-325.07,67.04-1.2-197.24,398.3v223.83h121.4v60.7H118.9v-60.7h121.4v-223.83Z"/>
  <path class="st0" d="M245.73,56.59c124.47-27.83,152.75,158.24,34.26,171.56-111.5,12.53-123.99-151.5-34.26-171.56Z"/>
  <path class="st0" d="M399.64,244.73v121.4c-28.17-1.6-47.73-31.94-74.08-36.8-23.95-4.42-33.62,16.48-58.64,14.92-18.03-1.13-28.04-16.99-44.86-16.2-25.14,1.18-55.01,34.2-80.4,38.09v-121.4c23.23,5.72,58.04,38.87,79.71,38.73,17-.11,27.63-15.74,45.55-16.83,24.84-1.51,36.47,19.46,59.97,16.24,17.96-2.46,51.26-33.42,72.75-38.13Z"/>
</svg>