<?xml version="1.0" encoding="UTF-8"?>
<svg id="Capa_1" xmlns="http://www.w3.org/2000/svg" version="1.1" viewBox="0 0 895.95 1080">
  <!-- Generator: Adobe Illustrator 29.8.1, SVG Export Plug-In . SVG Version: 2.1.1 Build 2)  -->
  <defs>
    <style>
      .st0 {
        fill: #f1b434;
      }
    </style>
  </defs>
  <path class="st0" d="M653.97,803.18c-20.13-54.16,26.1-72.82,52.77-115.43,104.65-167.22,13.94-378.77-174.92-423.33l12.18-48.58c247.79,52.83,340.44,370.03,162.2,550.91-4.75,4.82-48.24,40.78-52.22,36.43Z"/>
  <path class="st0" d="M396.77,215.84l12.18,48.58c-182.72,43.21-276.1,245.43-182.09,412.14,10.66,18.91,63.88,77.06,65.21,82.14,1.74,6.62-2.08,49.85-14.34,44.46C52.31,635.73,121.57,279.09,396.77,215.84Z"/>
  <path class="st0" d="M421.37,289.23c16.36,100.02,81.62,100.17,98.03,0,20.07-.9,119.74,47,115.97,63.84-23.65,16.84-108.49,120.59-126.49,124.97-52.76,12.82-5.69-104.49-41.46-96.97-25.91,5.44,15.48,109.36-35.53,96.97-18-4.37-102.84-108.13-126.49-124.97-3.77-16.84,95.89-64.74,115.97-63.84Z"/>
  <path class="st0" d="M623.28,772.62l24.57,171.34h-55.13c4.89-23.24-3.39-58.67-28.76-66.07-15.38-4.48-178.77-3.3-191.33,1.94-23.35,9.72-28.34,41.48-24.58,64.14h-55.13s24.56-171.35,24.56-171.35c91.83,59.32,214.09,59.25,305.8,0Z"/>
  <path class="st0" d="M451.98,790.96c-53.24-8.66-107.66-25.55-146.53-64.89l126.03-129.88c5.21-1,17.34,4.34,20.64,8.1,20.75,23.65-8.66,149.31-.14,186.66Z"/>
  <path class="st0" d="M219.52,552.36h180.5c2.46,0,16.13,18.24,12.48,24.59l-128.73,128.24c-39.64-39.12-61.79-97.32-64.25-152.83Z"/>
  <path class="st0" d="M721.24,552.36c-2.46,55.5-24.6,113.71-64.25,152.83l-128.73-128.24c-3.66-6.34,10.02-24.59,12.48-24.59h180.5Z"/>
  <path class="st0" d="M409.2,521.76h-189.67c1.43-55.86,27.92-111.75,64.25-152.86,28.46,39.61,102.57,87.58,126.01,125.2,6.19,9.94-1.78,17.4-.58,27.66Z"/>
  <path class="st0" d="M721.24,521.76h-189.67c1.2-10.26-6.77-17.72-.58-27.66,7.33-11.77,96.32-99.52,110.42-110.26,4.88-3.71,8.11-9.3,15.67-9.29,23.18.04,71.78,120.03,64.16,147.21Z"/>
  <path class="st0" d="M482.62,790.98v-189.67c10.26,1.2,17.72-6.77,27.66-.58,37.62,23.44,85.59,97.55,125.2,126.01-41.7,39.33-96.95,58.04-152.86,64.25Z"/>
  <path class="st0" d="M531.57,160.77l-58.21,171.29c-9.95,2.3-12.37-8.11-15.62-14.85-20.85-43.27-33.12-109.52-48.53-156.44h122.37Z"/>
  <path class="st0" d="M568.28,943.94h-195.79c-.05-16.15-.38-35.2,17.82-40.15,24.14-6.56,116.7-5.72,144.68-3.04,31.35,3,35.4,11.23,33.3,43.18Z"/>
  <path class="st0" d="M462.68,498.24c62.5-11.16,60.06,96.26-4.81,75.88-37.09-11.65-33.02-69.13,4.81-75.88Z"/>
</svg>